<svg xmlns="http://www.w3.org/2000/svg" xmlns:xlink="http://www.w3.org/1999/xlink" version="1.1" width="256" height="256" viewBox="0 0 256 256" xml:space="preserve">

<defs>
</defs>
<g style="stroke: none; stroke-width: 0; stroke-dasharray: none; stroke-linecap: butt; stroke-linejoin: miter; stroke-miterlimit: 10; fill: none; fill-rule: nonzero; opacity: 1;" transform="translate(1.4065934065934016 1.4065934065934016) scale(2.81 2.81)" >
	<path d="M 77.345 90 h -64.69 C 5.677 90 0 84.323 0 77.345 v -64.69 C 0 5.677 5.677 0 12.655 0 h 64.69 C 84.323 0 90 5.677 90 12.655 v 64.69 C 90 84.323 84.323 90 77.345 90 z" style="stroke: none; stroke-width: 1; stroke-dasharray: none; stroke-linecap: butt; stroke-linejoin: miter; stroke-miterlimit: 10; fill: rgb(187,187,187); fill-rule: nonzero; opacity: 1;" transform=" matrix(1 0 0 1 0 0) " stroke-linecap="round" />
	<path d="M 53.08 77.445 c 1.708 -0.201 2.95 -1.721 2.807 -3.435 l -1.422 -18.046 c -0.074 -1.024 -0.556 -1.975 -1.337 -2.642 l -6.205 -5.295 c -0.6 -0.512 -0.904 -1.289 -0.811 -2.071 l 1.942 -16.391 c 0.144 -1.216 -0.707 -2.326 -1.919 -2.502 l -2.945 -0.429 c -1.532 -0.223 -3.093 0.093 -4.418 0.894 l -7.047 4.263 c -1.077 0.652 -1.795 1.761 -1.948 3.011 l -1.122 9.158 c -0.186 1.52 0.9 2.902 2.421 3.08 h 0 c 1.51 0.177 2.879 -0.899 3.064 -2.408 l 0.797 -6.5 c 0.103 -0.837 0.571 -1.584 1.28 -2.041 l 2.873 -1.852 l -1.486 12.539 c -0.184 1.55 0.419 3.089 1.606 4.102 l 7.724 6.591 c 0.661 0.564 1.069 1.369 1.132 2.236 l 1.183 14.873 c 0.153 1.796 1.763 3.109 3.553 2.898 L 53.08 77.445 z" style="stroke: none; stroke-width: 1; stroke-dasharray: none; stroke-linecap: butt; stroke-linejoin: miter; stroke-miterlimit: 10; fill: rgb(255,255,255); fill-rule: nonzero; opacity: 1;" transform=" matrix(1 0 0 1 0 0) " stroke-linecap="round" />
	<path d="M 50.415 36.894 l 6.169 6.604 c 1.046 1.119 2.802 1.174 3.916 0.123 l 0 0 c 1.105 -1.044 1.16 -2.784 0.122 -3.895 l -9.174 -9.821 L 50.415 36.894 z" style="stroke: none; stroke-width: 1; stroke-dasharray: none; stroke-linecap: butt; stroke-linejoin: miter; stroke-miterlimit: 10; fill: rgb(255,255,255); fill-rule: nonzero; opacity: 1;" transform=" matrix(1 0 0 1 0 0) " stroke-linecap="round" />
	<circle cx="46.695" cy="18.325" r="5.825" style="stroke: none; stroke-width: 1; stroke-dasharray: none; stroke-linecap: butt; stroke-linejoin: miter; stroke-miterlimit: 10; fill: rgb(255,255,255); fill-rule: nonzero; opacity: 1;" transform="  matrix(1 0 0 1 0 0) "/>
	<path d="M 32.585 73.752 l 3.677 -20.782 l 3.333 2.754 l 2.302 1.902 L 38.871 74.86 c -0.309 1.758 -1.999 2.921 -3.752 2.581 h 0 C 33.409 77.109 32.281 75.467 32.585 73.752 z" style="stroke: none; stroke-width: 1; stroke-dasharray: none; stroke-linecap: butt; stroke-linejoin: miter; stroke-miterlimit: 10; fill: rgb(255,255,255); fill-rule: nonzero; opacity: 1;" transform=" matrix(1 0 0 1 0 0) " stroke-linecap="round" />
</g>
</svg>