<svg xmlns="http://www.w3.org/2000/svg" xmlns:xlink="http://www.w3.org/1999/xlink" version="1.1" width="256" height="256" viewBox="0 0 256 256" xml:space="preserve">

<defs>
</defs>
<g style="stroke: none; stroke-width: 0; stroke-dasharray: none; stroke-linecap: butt; stroke-linejoin: miter; stroke-miterlimit: 10; fill: none; fill-rule: nonzero; opacity: 1;" transform="translate(1.4065934065934016 1.4065934065934016) scale(2.81 2.81)" >
	<path d="M 74.855 0 h -59.71 C 6.794 0 0 6.794 0 15.145 v 59.71 C 0 83.206 6.794 90 15.145 90 h 59.71 C 83.206 90 90 83.206 90 74.855 v -59.71 C 90 6.794 83.206 0 74.855 0 z M 68.012 54.401 H 21.22 l 9.481 9.481 c 1.172 1.171 1.172 3.07 0 4.242 c -0.586 0.586 -1.354 0.879 -2.122 0.879 s -1.536 -0.293 -2.121 -0.879 L 11.856 53.522 c -0.858 -0.857 -1.115 -2.148 -0.65 -3.27 s 1.558 -1.852 2.771 -1.852 h 54.035 c 1.657 0 3 1.343 3 3 S 69.669 54.401 68.012 54.401 z M 78.794 39.747 c -0.464 1.121 -1.558 1.852 -2.771 1.852 H 21.988 c -1.657 0 -3 -1.343 -3 -3 s 1.343 -3 3 -3 H 68.78 l -9.481 -9.482 c -1.172 -1.171 -1.172 -3.071 0 -4.243 c 1.172 -1.171 3.07 -1.171 4.242 0 l 14.603 14.603 C 79.002 37.336 79.259 38.626 78.794 39.747 z" style="stroke: none; stroke-width: 1; stroke-dasharray: none; stroke-linecap: butt; stroke-linejoin: miter; stroke-miterlimit: 10; fill: rgb(187,187,187); fill-rule: nonzero; opacity: 1;" transform=" matrix(1 0 0 1 0 0) " stroke-linecap="round" />
</g>
</svg>